<svg width="24" height="24" viewBox="0 0 24 24" fill="none" xmlns="http://www.w3.org/2000/svg">
<path d="M4.39805 8.63178L11.6722 11.9178C11.8907 12.0117 12.1093 12.0117 12.3278 11.9178L19.602 8.63178C20.1327 8.38142 20.1327 7.59902 19.602 7.34866L12.3278 4.06259C12.2341 4 12.1093 4 12.0156 4C11.8907 4 11.7659 4 11.6722 4.06259L4.39805 7.34866C3.86732 7.59902 3.86732 8.38142 4.39805 8.63178ZM19.602 11.3858L17.7912 10.5408L12.7337 12.8567C12.5151 12.9506 12.2654 13.0132 12.0156 13.0132C11.7346 13.0132 11.4849 12.9506 11.2663 12.8567L6.20878 10.5408L4.39805 11.3858C3.86732 11.6049 3.86732 12.3873 4.39805 12.6377L11.6722 15.9237C11.8907 16.0176 12.1093 16.0176 12.3278 15.9237L19.602 12.6377C20.1327 12.3873 20.1327 11.6049 19.602 11.3858ZM19.602 15.3917L17.7912 14.5467L12.7337 16.8626C12.5151 16.9565 12.2654 17.0191 12.0156 17.0191C11.7346 17.0191 11.4849 16.9565 11.2663 16.8626L6.20878 14.5467L4.39805 15.3917C3.86732 15.6108 3.86732 16.3932 4.39805 16.6435L11.6722 19.9296C11.8907 20.0235 12.1093 20.0235 12.3278 19.9296L19.602 16.6435C20.1327 16.3932 20.1327 15.6108 19.602 15.3917Z" fill="#fff"/>
</svg>
