<svg width="16" height="16" viewBox="0 0 16 16" fill="none" xmlns="http://www.w3.org/2000/svg">
<g clip-path="url(#clip0_62_609)">
<rect width="16" height="16" rx="8" fill="url(#paint0_linear_62_609)"/>
<path d="M8.00016 2.66683L7.23483 3.94216C6.6335 4.94483 6.3335 5.44616 6.3335 6.00016C6.3335 6.5535 6.6335 7.0555 7.2355 8.05816L7.7155 8.85683C7.84216 9.07016 7.90683 9.17683 8.00083 9.17683C8.09483 9.17683 8.15883 9.07016 8.28683 8.85683L8.76616 8.05816C9.36683 7.0555 9.66683 6.55416 9.66683 6.00016C9.66683 5.44683 9.36683 4.94483 8.76483 3.94216L8.00016 2.66683ZM8.00016 2.66683V1.3335M13.4402 8.39883L11.9535 8.37416C10.7842 8.35416 10.2002 8.34416 9.72016 8.62083C9.24016 8.89816 8.95616 9.4095 8.38883 10.4322L7.93683 11.2462C7.81616 11.4635 7.75616 11.5722 7.8035 11.6535C7.85016 11.7355 7.97416 11.7375 8.22216 11.7415L9.15416 11.7575C10.3228 11.7775 10.9075 11.7868 11.3875 11.5095C11.8675 11.2328 12.1508 10.7215 12.7188 9.6995L13.4402 8.39883ZM13.4402 8.39883L14.5948 7.73216" stroke="black"/>
<path d="M2.55994 8.39884L4.04661 8.37418C5.21594 8.35418 5.79994 8.34418 6.27994 8.62084C6.75994 8.89818 7.04394 9.40951 7.61127 10.4322L8.06327 11.2462C8.18394 11.4635 8.24394 11.5722 8.19661 11.6535C8.14994 11.7355 8.02594 11.7375 7.77794 11.7415L6.84594 11.7575C5.67727 11.7775 5.09261 11.7868 4.61261 11.5095C4.13261 11.2328 3.84927 10.7215 3.28194 9.69951L2.55994 8.39884ZM2.55994 8.39884L1.40527 7.73218M7.99994 10.0002V15.0002" stroke="black"/>
</g>
<defs>
<linearGradient id="paint0_linear_62_609" x1="8" y1="0" x2="8" y2="16" gradientUnits="userSpaceOnUse">
<stop stop-color="#95C11F"/>
<stop offset="1" stop-color="#FFC46B"/>
</linearGradient>
<clipPath id="clip0_62_609">
<rect width="16" height="16" fill="white"/>
</clipPath>
</defs>
</svg>
