<svg width="16" height="16" viewBox="0 0 16 16" fill="none" xmlns="http://www.w3.org/2000/svg">
<g clip-path="url(#clip0_62_619)">
<rect width="16" height="16" rx="8" fill="url(#paint0_linear_62_619)"/>
<path d="M8.00016 13.6668C11.1298 13.6668 13.6668 11.1298 13.6668 8.00016C13.6668 4.87055 11.1298 2.3335 8.00016 2.3335C4.87055 2.3335 2.3335 4.87055 2.3335 8.00016C2.3335 11.1298 4.87055 13.6668 8.00016 13.6668Z" stroke="black"/>
<path d="M8 10.0002C9.10457 10.0002 10 9.10481 10 8.00024C10 6.89567 9.10457 6.00024 8 6.00024C6.89543 6.00024 6 6.89567 6 8.00024C6 9.10481 6.89543 10.0002 8 10.0002Z" stroke="black"/>
<path d="M10.0002 8.00022L10.4175 7.50888C10.9835 6.84355 12.0695 7.30555 11.9828 8.17488C11.8888 9.11355 13.1288 9.53488 13.6262 8.73221L13.6668 8.66688M6.00016 8.00022L5.88216 8.67088C5.6955 9.72888 4.18483 9.75222 3.9655 8.70022L3.8515 8.15222C3.6915 7.38622 2.6415 7.28155 2.3335 8.00022" stroke="black"/>
<path d="M6.33333 4.66691C6.51743 4.66691 6.66667 4.51767 6.66667 4.33358C6.66667 4.14948 6.51743 4.00024 6.33333 4.00024C6.14924 4.00024 6 4.14948 6 4.33358C6 4.51767 6.14924 4.66691 6.33333 4.66691Z" stroke="black"/>
<path d="M11.0003 6.00016C11.1844 6.00016 11.3337 5.85092 11.3337 5.66683C11.3337 5.48273 11.1844 5.3335 11.0003 5.3335C10.8162 5.3335 10.667 5.48273 10.667 5.66683C10.667 5.85092 10.8162 6.00016 11.0003 6.00016Z" stroke="black"/>
<path d="M9.00033 4.00016C9.18442 4.00016 9.33366 3.85092 9.33366 3.66683C9.33366 3.48273 9.18442 3.3335 9.00033 3.3335C8.81623 3.3335 8.66699 3.48273 8.66699 3.66683C8.66699 3.85092 8.81623 4.00016 9.00033 4.00016Z" stroke="black"/>
</g>
<defs>
<linearGradient id="paint0_linear_62_619" x1="8" y1="0" x2="8" y2="16" gradientUnits="userSpaceOnUse">
<stop stop-color="#FF547C"/>
<stop offset="1" stop-color="#FFC46B"/>
</linearGradient>
<clipPath id="clip0_62_619">
<rect width="16" height="16" fill="white"/>
</clipPath>
</defs>
</svg>
