<svg width="24" height="24" viewBox="0 0 24 24" fill="none" xmlns="http://www.w3.org/2000/svg">
<path d="M21.0809 7.71875L19.0754 4.46875C18.8902 4.1875 18.5817 4 18.2423 4H5.7772C5.43781 4 5.09841 4.1875 4.91329 4.46875L2.93862 7.71875C1.88957 9.40625 2.8152 11.7188 4.72816 11.9688C4.88243 12 5.00585 12 5.16012 12C6.08575 12 6.88796 11.5938 7.44333 10.9688C7.99871 11.5938 8.80092 12 9.72655 12C10.6213 12 11.4235 11.5938 11.9789 10.9688C12.5343 11.5938 13.3673 12 14.2621 12C15.1877 12 15.99 11.5938 16.5453 10.9688C17.1007 11.5938 17.9029 12 18.8285 12C18.9828 12 19.1062 12 19.2605 11.9688C21.1735 11.7188 22.0991 9.40625 21.0809 7.71875ZM18.8285 13C18.52 13 18.2115 12.9688 17.9338 12.9062V16H6.08575V12.9062C5.7772 12.9688 5.46866 13 5.16012 13C4.975 13 4.78987 13 4.60474 12.9688C4.41962 12.9375 4.26535 12.9062 4.11108 12.875V19C4.11108 19.5625 4.54304 20 5.09841 20H18.9211C19.4456 20 19.9084 19.5625 19.9084 19V12.875C19.7233 12.9062 19.569 12.9688 19.3839 12.9688C19.1988 13 19.0137 13 18.8285 13Z" fill="#777C91"/>
</svg>
