<svg width="20" height="20" viewBox="0 0 20 20" fill="none" xmlns="http://www.w3.org/2000/svg">
<path d="M14.9198 8.77001H11.2298V5.08001C11.2298 4.64438 10.8454 4.26001 10.4098 4.26001H9.58977C9.12852 4.26001 8.76977 4.64438 8.76977 5.08001V8.77001H5.07977C4.61852 8.77001 4.25977 9.15438 4.25977 9.59001V10.41C4.25977 10.8713 4.61852 11.23 5.07977 11.23H8.76977V14.92C8.76977 15.3813 9.12852 15.74 9.58977 15.74H10.4098C10.8454 15.74 11.2298 15.3813 11.2298 14.92V11.23H14.9198C15.3554 11.23 15.7398 10.8713 15.7398 10.41V9.59001C15.7398 9.15438 15.3554 8.77001 14.9198 8.77001Z" fill="#CDCDCD"/>
</svg>
