<svg width="16" height="16" viewBox="0 0 16 16" fill="none" xmlns="http://www.w3.org/2000/svg">
<g clip-path="url(#clip0_62_615)">
<rect width="16" height="16" rx="8" fill="#00D0FF"/>
<path d="M6.54422 3.912C7.43622 2.696 9.25222 2.696 10.1442 3.912L10.6562 4.60933C11.7621 6.11748 12.4548 7.88841 12.6655 9.74667C12.7617 10.5975 12.5531 11.4549 12.0768 12.1665C11.6005 12.8781 10.8874 13.3978 10.0642 13.6333L9.55222 13.78C8.76266 14.0054 7.92577 14.0054 7.13622 13.78L6.62422 13.6333C5.80099 13.3978 5.0879 12.8781 4.61164 12.1665C4.13538 11.4549 3.92677 10.5975 4.02288 9.74667C4.23386 7.88835 4.92674 6.11741 6.03288 4.60933L6.54422 3.912Z" stroke="black"/>
</g>
<defs>
<clipPath id="clip0_62_615">
<rect width="16" height="16" fill="white"/>
</clipPath>
</defs>
</svg>
