<svg width="14" height="14" viewBox="0 0 14 14" fill="none" xmlns="http://www.w3.org/2000/svg">
<path fill-rule="evenodd" clip-rule="evenodd" d="M6.34382 4.27522C5.8996 4.13552 5.51156 3.85771 5.23615 3.48221C4.96075 3.10672 4.81235 2.65313 4.81257 2.18747C4.81275 1.78321 4.92496 1.38691 5.13673 1.04255C5.3485 0.698201 5.65156 0.419267 6.01225 0.236714C6.37295 0.0541616 6.77718 -0.0248688 7.18007 0.00839561C7.58295 0.04166 7.96875 0.185918 8.29462 0.425157C8.62049 0.664396 8.87369 0.989256 9.02611 1.36368C9.17854 1.7381 9.22423 2.14744 9.15811 2.54626C9.09199 2.94507 8.91665 3.31777 8.65155 3.62297C8.38645 3.92817 8.04196 4.15394 7.65632 4.27522V5.24997H10.1973C10.6651 5.25007 11.1205 5.4001 11.4967 5.67806C11.873 5.95601 12.1502 6.34725 12.2877 6.79434L13.4777 10.6645C13.5651 10.9487 13.5847 11.2495 13.5348 11.5427C13.4849 11.8359 13.3669 12.1132 13.1903 12.3525C13.0137 12.5918 12.7835 12.7864 12.5181 12.9205C12.2526 13.0547 11.9595 13.1247 11.6621 13.125H2.33894C2.0414 13.125 1.74801 13.0552 1.48236 12.9211C1.21672 12.7871 0.98624 12.5926 0.809462 12.3533C0.632684 12.1139 0.514543 11.8364 0.464541 11.5431C0.414539 11.2498 0.434071 10.9489 0.521568 10.6645L0.742068 9.94697L1.71244 6.79434C1.85001 6.34711 2.12736 5.95577 2.50376 5.6778C2.88016 5.39983 3.33578 5.24988 3.80369 5.24997H6.34382V4.27522ZM7.87507 2.18747C7.87507 2.41953 7.78288 2.64209 7.61879 2.80619C7.45469 2.97028 7.23213 3.06247 7.00007 3.06247C6.768 3.06247 6.54544 2.97028 6.38135 2.80619C6.21726 2.64209 6.12507 2.41953 6.12507 2.18747C6.12507 1.9554 6.21726 1.73285 6.38135 1.56875C6.54544 1.40466 6.768 1.31247 7.00007 1.31247C7.23213 1.31247 7.45469 1.40466 7.61879 1.56875C7.78288 1.73285 7.87507 1.9554 7.87507 2.18747ZM3.80282 6.56247C3.6158 6.56262 3.43375 6.62269 3.28337 6.73386C3.13298 6.84504 3.02218 7.00147 2.96719 7.18022L1.77632 11.0503C1.74921 11.1384 1.74314 11.2316 1.75861 11.3224C1.77408 11.4133 1.81064 11.4992 1.86537 11.5733C1.92009 11.6475 1.99145 11.7077 2.0737 11.7493C2.15595 11.7908 2.2468 11.8124 2.33894 11.8125H11.6612C11.7533 11.8124 11.8442 11.7908 11.9264 11.7493C12.0087 11.7077 12.08 11.6475 12.1348 11.5733C12.1895 11.4992 12.2261 11.4133 12.2415 11.3224C12.257 11.2316 12.2509 11.1384 12.2238 11.0503L11.0338 7.18022C10.9788 7.00133 10.8679 6.84479 10.7173 6.7336C10.5667 6.62241 10.3845 6.56243 10.1973 6.56247H3.80282Z" fill="white"/>
</svg>
